<?xml version="1.0" encoding="utf-8" standalone="no"?>
<!DOCTYPE svg PUBLIC "-//W3C//DTD SVG 1.1//EN"
  "http://www.w3.org/Graphics/SVG/1.1/DTD/svg11.dtd">
<svg xmlns:xlink="http://www.w3.org/1999/xlink" width="720pt" height="360pt" viewBox="0 0 720 360" xmlns="http://www.w3.org/2000/svg" version="1.1">
 <metadata>
  <rdf:RDF xmlns:dc="http://purl.org/dc/elements/1.1/" xmlns:cc="http://creativecommons.org/ns#" xmlns:rdf="http://www.w3.org/1999/02/22-rdf-syntax-ns#">
   <cc:Work>
    <dc:type rdf:resource="http://purl.org/dc/dcmitype/StillImage"/>
    <dc:date>2023-01-19T15:40:11.704496</dc:date>
    <dc:format>image/svg+xml</dc:format>
    <dc:creator>
     <cc:Agent>
      <dc:title>Matplotlib v3.5.2, https://matplotlib.org/</dc:title>
     </cc:Agent>
    </dc:creator>
   </cc:Work>
  </rdf:RDF>
 </metadata>
 <defs>
  <style type="text/css">*{stroke-linejoin: round; stroke-linecap: butt}</style>
 </defs>
 <g id="figure_1">
  <g id="patch_1">
   <path d="M 0 360 
L 720 360 
L 720 0 
L 0 0 
L 0 360 
z
" style="fill: none"/>
  </g>
  <g id="axes_1">
   <g id="patch_2">
    <path d="M 90 315 
L 343.636364 315 
L 343.636364 43.2 
L 90 43.2 
z
" style="fill: #ffffff"/>
   </g>
   <g id="patch_3">
    <path d="M 101.528926 315 
L 167.408501 315 
L 167.408501 206.808934 
L 101.528926 206.808934 
z
" clip-path="url(#pd7f409e9ab)" style="fill: #3274a1"/>
   </g>
   <g id="patch_4">
    <path d="M 183.878394 315 
L 249.757969 315 
L 249.757969 181.163644 
L 183.878394 181.163644 
z
" clip-path="url(#pd7f409e9ab)" style="fill: #e1812c"/>
   </g>
   <g id="patch_5">
    <path d="M 266.227863 315 
L 332.107438 315 
L 332.107438 141.092879 
L 266.227863 141.092879 
z
" clip-path="url(#pd7f409e9ab)" style="fill: #3a923a"/>
   </g>
   <g id="PolyCollection_1"/>
   <g id="PolyCollection_2"/>
   <g id="PolyCollection_3"/>
   <g id="PolyCollection_4"/>
   <g id="PolyCollection_5"/>
   <g id="PolyCollection_6"/>
   <g id="PolyCollection_7"/>
   <g id="PolyCollection_8"/>
   <g id="PolyCollection_9"/>
   <g id="PolyCollection_10"/>
   <g id="PolyCollection_11"/>
   <g id="PolyCollection_12"/>
   <g id="PolyCollection_13"/>
   <g id="PolyCollection_14"/>
   <g id="PolyCollection_15"/>
   <g id="PolyCollection_16"/>
   <g id="PolyCollection_17"/>
   <g id="PolyCollection_18"/>
   <g id="PolyCollection_19"/>
   <g id="matplotlib.axis_1">
    <g id="xtick_1">
     <g id="line2d_1">
      <defs>
       <path id="m16019a1909" d="M 0 0 
L 0 3.5 
" style="stroke: #000000; stroke-width: 0.8"/>
      </defs>
      <g>
       <use xlink:href="#m16019a1909" x="134.468713" y="315" style="stroke: #000000; stroke-width: 0.8"/>
      </g>
     </g>
     <g id="text_1">
      <!-- layer1 -->
      <g transform="translate(120.649744 346.107784)rotate(-30)scale(0.1 -0.1)">
       <defs>
        <path id="DejaVuSans-Bold-6c" d="M 538 4863 
L 1656 4863 
L 1656 0 
L 538 0 
L 538 4863 
z
" transform="scale(0.015625)"/>
        <path id="DejaVuSans-Bold-61" d="M 2106 1575 
Q 1756 1575 1579 1456 
Q 1403 1338 1403 1106 
Q 1403 894 1545 773 
Q 1688 653 1941 653 
Q 2256 653 2472 879 
Q 2688 1106 2688 1447 
L 2688 1575 
L 2106 1575 
z
M 3816 1997 
L 3816 0 
L 2688 0 
L 2688 519 
Q 2463 200 2181 54 
Q 1900 -91 1497 -91 
Q 953 -91 614 226 
Q 275 544 275 1050 
Q 275 1666 698 1953 
Q 1122 2241 2028 2241 
L 2688 2241 
L 2688 2328 
Q 2688 2594 2478 2717 
Q 2269 2841 1825 2841 
Q 1466 2841 1156 2769 
Q 847 2697 581 2553 
L 581 3406 
Q 941 3494 1303 3539 
Q 1666 3584 2028 3584 
Q 2975 3584 3395 3211 
Q 3816 2838 3816 1997 
z
" transform="scale(0.015625)"/>
        <path id="DejaVuSans-Bold-79" d="M 78 3500 
L 1197 3500 
L 2138 1125 
L 2938 3500 
L 4056 3500 
L 2584 -331 
Q 2363 -916 2067 -1148 
Q 1772 -1381 1288 -1381 
L 641 -1381 
L 641 -647 
L 991 -647 
Q 1275 -647 1404 -556 
Q 1534 -466 1606 -231 
L 1638 -134 
L 78 3500 
z
" transform="scale(0.015625)"/>
        <path id="DejaVuSans-Bold-65" d="M 4031 1759 
L 4031 1441 
L 1416 1441 
Q 1456 1047 1700 850 
Q 1944 653 2381 653 
Q 2734 653 3104 758 
Q 3475 863 3866 1075 
L 3866 213 
Q 3469 63 3072 -14 
Q 2675 -91 2278 -91 
Q 1328 -91 801 392 
Q 275 875 275 1747 
Q 275 2603 792 3093 
Q 1309 3584 2216 3584 
Q 3041 3584 3536 3087 
Q 4031 2591 4031 1759 
z
M 2881 2131 
Q 2881 2450 2695 2645 
Q 2509 2841 2209 2841 
Q 1884 2841 1681 2658 
Q 1478 2475 1428 2131 
L 2881 2131 
z
" transform="scale(0.015625)"/>
        <path id="DejaVuSans-Bold-72" d="M 3138 2547 
Q 2991 2616 2845 2648 
Q 2700 2681 2553 2681 
Q 2122 2681 1889 2404 
Q 1656 2128 1656 1613 
L 1656 0 
L 538 0 
L 538 3500 
L 1656 3500 
L 1656 2925 
Q 1872 3269 2151 3426 
Q 2431 3584 2822 3584 
Q 2878 3584 2943 3579 
Q 3009 3575 3134 3559 
L 3138 2547 
z
" transform="scale(0.015625)"/>
        <path id="DejaVuSans-Bold-31" d="M 750 831 
L 1813 831 
L 1813 3847 
L 722 3622 
L 722 4441 
L 1806 4666 
L 2950 4666 
L 2950 831 
L 4013 831 
L 4013 0 
L 750 0 
L 750 831 
z
" transform="scale(0.015625)"/>
       </defs>
       <use xlink:href="#DejaVuSans-Bold-6c"/>
       <use xlink:href="#DejaVuSans-Bold-61" x="34.277344"/>
       <use xlink:href="#DejaVuSans-Bold-79" x="98.632812"/>
       <use xlink:href="#DejaVuSans-Bold-65" x="163.818359"/>
       <use xlink:href="#DejaVuSans-Bold-72" x="231.640625"/>
       <use xlink:href="#DejaVuSans-Bold-31" x="280.957031"/>
      </g>
     </g>
    </g>
    <g id="xtick_2">
     <g id="line2d_2">
      <g>
       <use xlink:href="#m16019a1909" x="216.818182" y="315" style="stroke: #000000; stroke-width: 0.8"/>
      </g>
     </g>
     <g id="text_2">
      <!-- layer2 -->
      <g transform="translate(202.999213 346.107784)rotate(-30)scale(0.1 -0.1)">
       <defs>
        <path id="DejaVuSans-Bold-32" d="M 1844 884 
L 3897 884 
L 3897 0 
L 506 0 
L 506 884 
L 2209 2388 
Q 2438 2594 2547 2791 
Q 2656 2988 2656 3200 
Q 2656 3528 2436 3728 
Q 2216 3928 1850 3928 
Q 1569 3928 1234 3808 
Q 900 3688 519 3450 
L 519 4475 
Q 925 4609 1322 4679 
Q 1719 4750 2100 4750 
Q 2938 4750 3402 4381 
Q 3866 4013 3866 3353 
Q 3866 2972 3669 2642 
Q 3472 2313 2841 1759 
L 1844 884 
z
" transform="scale(0.015625)"/>
       </defs>
       <use xlink:href="#DejaVuSans-Bold-6c"/>
       <use xlink:href="#DejaVuSans-Bold-61" x="34.277344"/>
       <use xlink:href="#DejaVuSans-Bold-79" x="98.632812"/>
       <use xlink:href="#DejaVuSans-Bold-65" x="163.818359"/>
       <use xlink:href="#DejaVuSans-Bold-72" x="231.640625"/>
       <use xlink:href="#DejaVuSans-Bold-32" x="280.957031"/>
      </g>
     </g>
    </g>
    <g id="xtick_3">
     <g id="line2d_3">
      <g>
       <use xlink:href="#m16019a1909" x="299.167651" y="315" style="stroke: #000000; stroke-width: 0.8"/>
      </g>
     </g>
     <g id="text_3">
      <!-- layer3 -->
      <g transform="translate(285.348682 346.107784)rotate(-30)scale(0.1 -0.1)">
       <defs>
        <path id="DejaVuSans-Bold-33" d="M 2981 2516 
Q 3453 2394 3698 2092 
Q 3944 1791 3944 1325 
Q 3944 631 3412 270 
Q 2881 -91 1863 -91 
Q 1503 -91 1142 -33 
Q 781 25 428 141 
L 428 1069 
Q 766 900 1098 814 
Q 1431 728 1753 728 
Q 2231 728 2486 893 
Q 2741 1059 2741 1369 
Q 2741 1688 2480 1852 
Q 2219 2016 1709 2016 
L 1228 2016 
L 1228 2791 
L 1734 2791 
Q 2188 2791 2409 2933 
Q 2631 3075 2631 3366 
Q 2631 3634 2415 3781 
Q 2200 3928 1806 3928 
Q 1516 3928 1219 3862 
Q 922 3797 628 3669 
L 628 4550 
Q 984 4650 1334 4700 
Q 1684 4750 2022 4750 
Q 2931 4750 3382 4451 
Q 3834 4153 3834 3553 
Q 3834 3144 3618 2883 
Q 3403 2622 2981 2516 
z
" transform="scale(0.015625)"/>
       </defs>
       <use xlink:href="#DejaVuSans-Bold-6c"/>
       <use xlink:href="#DejaVuSans-Bold-61" x="34.277344"/>
       <use xlink:href="#DejaVuSans-Bold-79" x="98.632812"/>
       <use xlink:href="#DejaVuSans-Bold-65" x="163.818359"/>
       <use xlink:href="#DejaVuSans-Bold-72" x="231.640625"/>
       <use xlink:href="#DejaVuSans-Bold-33" x="280.957031"/>
      </g>
     </g>
    </g>
   </g>
   <g id="matplotlib.axis_2">
    <g id="ytick_1">
     <g id="line2d_4">
      <defs>
       <path id="m6565908df0" d="M 0 0 
L -3.5 0 
" style="stroke: #000000; stroke-width: 0.8"/>
      </defs>
      <g>
       <use xlink:href="#m6565908df0" x="90" y="315" style="stroke: #000000; stroke-width: 0.8"/>
      </g>
     </g>
     <g id="text_4">
      <!-- 0.0 -->
      <g transform="translate(65.285938 318.799219)scale(0.1 -0.1)">
       <defs>
        <path id="DejaVuSans-Bold-30" d="M 2944 2338 
Q 2944 3213 2780 3570 
Q 2616 3928 2228 3928 
Q 1841 3928 1675 3570 
Q 1509 3213 1509 2338 
Q 1509 1453 1675 1090 
Q 1841 728 2228 728 
Q 2613 728 2778 1090 
Q 2944 1453 2944 2338 
z
M 4147 2328 
Q 4147 1169 3647 539 
Q 3147 -91 2228 -91 
Q 1306 -91 806 539 
Q 306 1169 306 2328 
Q 306 3491 806 4120 
Q 1306 4750 2228 4750 
Q 3147 4750 3647 4120 
Q 4147 3491 4147 2328 
z
" transform="scale(0.015625)"/>
        <path id="DejaVuSans-Bold-2e" d="M 653 1209 
L 1778 1209 
L 1778 0 
L 653 0 
L 653 1209 
z
" transform="scale(0.015625)"/>
       </defs>
       <use xlink:href="#DejaVuSans-Bold-30"/>
       <use xlink:href="#DejaVuSans-Bold-2e" x="69.580078"/>
       <use xlink:href="#DejaVuSans-Bold-30" x="107.568359"/>
      </g>
     </g>
    </g>
    <g id="ytick_2">
     <g id="line2d_5">
      <g>
       <use xlink:href="#m6565908df0" x="90" y="284.546218" style="stroke: #000000; stroke-width: 0.8"/>
      </g>
     </g>
     <g id="text_5">
      <!-- 0.1 -->
      <g transform="translate(65.285938 288.345437)scale(0.1 -0.1)">
       <use xlink:href="#DejaVuSans-Bold-30"/>
       <use xlink:href="#DejaVuSans-Bold-2e" x="69.580078"/>
       <use xlink:href="#DejaVuSans-Bold-31" x="107.568359"/>
      </g>
     </g>
    </g>
    <g id="ytick_3">
     <g id="line2d_6">
      <g>
       <use xlink:href="#m6565908df0" x="90" y="254.092437" style="stroke: #000000; stroke-width: 0.8"/>
      </g>
     </g>
     <g id="text_6">
      <!-- 0.2 -->
      <g transform="translate(65.285938 257.891656)scale(0.1 -0.1)">
       <use xlink:href="#DejaVuSans-Bold-30"/>
       <use xlink:href="#DejaVuSans-Bold-2e" x="69.580078"/>
       <use xlink:href="#DejaVuSans-Bold-32" x="107.568359"/>
      </g>
     </g>
    </g>
    <g id="ytick_4">
     <g id="line2d_7">
      <g>
       <use xlink:href="#m6565908df0" x="90" y="223.638655" style="stroke: #000000; stroke-width: 0.8"/>
      </g>
     </g>
     <g id="text_7">
      <!-- 0.3 -->
      <g transform="translate(65.285938 227.437874)scale(0.1 -0.1)">
       <use xlink:href="#DejaVuSans-Bold-30"/>
       <use xlink:href="#DejaVuSans-Bold-2e" x="69.580078"/>
       <use xlink:href="#DejaVuSans-Bold-33" x="107.568359"/>
      </g>
     </g>
    </g>
    <g id="ytick_5">
     <g id="line2d_8">
      <g>
       <use xlink:href="#m6565908df0" x="90" y="193.184874" style="stroke: #000000; stroke-width: 0.8"/>
      </g>
     </g>
     <g id="text_8">
      <!-- 0.4 -->
      <g transform="translate(65.285938 196.984093)scale(0.1 -0.1)">
       <defs>
        <path id="DejaVuSans-Bold-34" d="M 2356 3675 
L 1038 1722 
L 2356 1722 
L 2356 3675 
z
M 2156 4666 
L 3494 4666 
L 3494 1722 
L 4159 1722 
L 4159 850 
L 3494 850 
L 3494 0 
L 2356 0 
L 2356 850 
L 288 850 
L 288 1881 
L 2156 4666 
z
" transform="scale(0.015625)"/>
       </defs>
       <use xlink:href="#DejaVuSans-Bold-30"/>
       <use xlink:href="#DejaVuSans-Bold-2e" x="69.580078"/>
       <use xlink:href="#DejaVuSans-Bold-34" x="107.568359"/>
      </g>
     </g>
    </g>
    <g id="ytick_6">
     <g id="line2d_9">
      <g>
       <use xlink:href="#m6565908df0" x="90" y="162.731092" style="stroke: #000000; stroke-width: 0.8"/>
      </g>
     </g>
     <g id="text_9">
      <!-- 0.5 -->
      <g transform="translate(65.285938 166.530311)scale(0.1 -0.1)">
       <defs>
        <path id="DejaVuSans-Bold-35" d="M 678 4666 
L 3669 4666 
L 3669 3781 
L 1638 3781 
L 1638 3059 
Q 1775 3097 1914 3117 
Q 2053 3138 2203 3138 
Q 3056 3138 3531 2711 
Q 4006 2284 4006 1522 
Q 4006 766 3489 337 
Q 2972 -91 2053 -91 
Q 1656 -91 1267 -14 
Q 878 63 494 219 
L 494 1166 
Q 875 947 1217 837 
Q 1559 728 1863 728 
Q 2300 728 2551 942 
Q 2803 1156 2803 1522 
Q 2803 1891 2551 2103 
Q 2300 2316 1863 2316 
Q 1603 2316 1309 2248 
Q 1016 2181 678 2041 
L 678 4666 
z
" transform="scale(0.015625)"/>
       </defs>
       <use xlink:href="#DejaVuSans-Bold-30"/>
       <use xlink:href="#DejaVuSans-Bold-2e" x="69.580078"/>
       <use xlink:href="#DejaVuSans-Bold-35" x="107.568359"/>
      </g>
     </g>
    </g>
    <g id="ytick_7">
     <g id="line2d_10">
      <g>
       <use xlink:href="#m6565908df0" x="90" y="132.277311" style="stroke: #000000; stroke-width: 0.8"/>
      </g>
     </g>
     <g id="text_10">
      <!-- 0.6 -->
      <g transform="translate(65.285938 136.07653)scale(0.1 -0.1)">
       <defs>
        <path id="DejaVuSans-Bold-36" d="M 2316 2303 
Q 2000 2303 1842 2098 
Q 1684 1894 1684 1484 
Q 1684 1075 1842 870 
Q 2000 666 2316 666 
Q 2634 666 2792 870 
Q 2950 1075 2950 1484 
Q 2950 1894 2792 2098 
Q 2634 2303 2316 2303 
z
M 3803 4544 
L 3803 3681 
Q 3506 3822 3243 3889 
Q 2981 3956 2731 3956 
Q 2194 3956 1894 3657 
Q 1594 3359 1544 2772 
Q 1750 2925 1990 3001 
Q 2231 3078 2516 3078 
Q 3231 3078 3670 2659 
Q 4109 2241 4109 1563 
Q 4109 813 3618 361 
Q 3128 -91 2303 -91 
Q 1394 -91 895 523 
Q 397 1138 397 2266 
Q 397 3422 980 4083 
Q 1563 4744 2578 4744 
Q 2900 4744 3203 4694 
Q 3506 4644 3803 4544 
z
" transform="scale(0.015625)"/>
       </defs>
       <use xlink:href="#DejaVuSans-Bold-30"/>
       <use xlink:href="#DejaVuSans-Bold-2e" x="69.580078"/>
       <use xlink:href="#DejaVuSans-Bold-36" x="107.568359"/>
      </g>
     </g>
    </g>
    <g id="ytick_8">
     <g id="line2d_11">
      <g>
       <use xlink:href="#m6565908df0" x="90" y="101.823529" style="stroke: #000000; stroke-width: 0.8"/>
      </g>
     </g>
     <g id="text_11">
      <!-- 0.7 -->
      <g transform="translate(65.285938 105.622748)scale(0.1 -0.1)">
       <defs>
        <path id="DejaVuSans-Bold-37" d="M 428 4666 
L 3944 4666 
L 3944 3988 
L 2125 0 
L 953 0 
L 2675 3781 
L 428 3781 
L 428 4666 
z
" transform="scale(0.015625)"/>
       </defs>
       <use xlink:href="#DejaVuSans-Bold-30"/>
       <use xlink:href="#DejaVuSans-Bold-2e" x="69.580078"/>
       <use xlink:href="#DejaVuSans-Bold-37" x="107.568359"/>
      </g>
     </g>
    </g>
    <g id="ytick_9">
     <g id="line2d_12">
      <g>
       <use xlink:href="#m6565908df0" x="90" y="71.369748" style="stroke: #000000; stroke-width: 0.8"/>
      </g>
     </g>
     <g id="text_12">
      <!-- 0.8 -->
      <g transform="translate(65.285938 75.168967)scale(0.1 -0.1)">
       <defs>
        <path id="DejaVuSans-Bold-38" d="M 2228 2088 
Q 1891 2088 1709 1903 
Q 1528 1719 1528 1375 
Q 1528 1031 1709 848 
Q 1891 666 2228 666 
Q 2563 666 2741 848 
Q 2919 1031 2919 1375 
Q 2919 1722 2741 1905 
Q 2563 2088 2228 2088 
z
M 1350 2484 
Q 925 2613 709 2878 
Q 494 3144 494 3541 
Q 494 4131 934 4440 
Q 1375 4750 2228 4750 
Q 3075 4750 3515 4442 
Q 3956 4134 3956 3541 
Q 3956 3144 3739 2878 
Q 3522 2613 3097 2484 
Q 3572 2353 3814 2058 
Q 4056 1763 4056 1313 
Q 4056 619 3595 264 
Q 3134 -91 2228 -91 
Q 1319 -91 855 264 
Q 391 619 391 1313 
Q 391 1763 633 2058 
Q 875 2353 1350 2484 
z
M 1631 3419 
Q 1631 3141 1786 2991 
Q 1941 2841 2228 2841 
Q 2509 2841 2662 2991 
Q 2816 3141 2816 3419 
Q 2816 3697 2662 3845 
Q 2509 3994 2228 3994 
Q 1941 3994 1786 3844 
Q 1631 3694 1631 3419 
z
" transform="scale(0.015625)"/>
       </defs>
       <use xlink:href="#DejaVuSans-Bold-30"/>
       <use xlink:href="#DejaVuSans-Bold-2e" x="69.580078"/>
       <use xlink:href="#DejaVuSans-Bold-38" x="107.568359"/>
      </g>
     </g>
    </g>
    <g id="text_13">
     <!-- Accuracy -->
     <g transform="translate(59.128125 204.520312)rotate(-90)scale(0.1 -0.1)">
      <defs>
       <path id="DejaVuSans-Bold-41" d="M 3419 850 
L 1538 850 
L 1241 0 
L 31 0 
L 1759 4666 
L 3194 4666 
L 4922 0 
L 3713 0 
L 3419 850 
z
M 1838 1716 
L 3116 1716 
L 2478 3572 
L 1838 1716 
z
" transform="scale(0.015625)"/>
       <path id="DejaVuSans-Bold-63" d="M 3366 3391 
L 3366 2478 
Q 3138 2634 2908 2709 
Q 2678 2784 2431 2784 
Q 1963 2784 1702 2511 
Q 1441 2238 1441 1747 
Q 1441 1256 1702 982 
Q 1963 709 2431 709 
Q 2694 709 2930 787 
Q 3166 866 3366 1019 
L 3366 103 
Q 3103 6 2833 -42 
Q 2563 -91 2291 -91 
Q 1344 -91 809 395 
Q 275 881 275 1747 
Q 275 2613 809 3098 
Q 1344 3584 2291 3584 
Q 2566 3584 2833 3536 
Q 3100 3488 3366 3391 
z
" transform="scale(0.015625)"/>
       <path id="DejaVuSans-Bold-75" d="M 500 1363 
L 500 3500 
L 1625 3500 
L 1625 3150 
Q 1625 2866 1622 2436 
Q 1619 2006 1619 1863 
Q 1619 1441 1641 1255 
Q 1663 1069 1716 984 
Q 1784 875 1895 815 
Q 2006 756 2150 756 
Q 2500 756 2700 1025 
Q 2900 1294 2900 1772 
L 2900 3500 
L 4019 3500 
L 4019 0 
L 2900 0 
L 2900 506 
Q 2647 200 2364 54 
Q 2081 -91 1741 -91 
Q 1134 -91 817 281 
Q 500 653 500 1363 
z
" transform="scale(0.015625)"/>
      </defs>
      <use xlink:href="#DejaVuSans-Bold-41"/>
      <use xlink:href="#DejaVuSans-Bold-63" x="77.392578"/>
      <use xlink:href="#DejaVuSans-Bold-63" x="136.669922"/>
      <use xlink:href="#DejaVuSans-Bold-75" x="195.947266"/>
      <use xlink:href="#DejaVuSans-Bold-72" x="267.138672"/>
      <use xlink:href="#DejaVuSans-Bold-61" x="316.455078"/>
      <use xlink:href="#DejaVuSans-Bold-63" x="383.935547"/>
      <use xlink:href="#DejaVuSans-Bold-79" x="443.212891"/>
     </g>
    </g>
   </g>
   <g id="line2d_13">
    <path d="M 134.468713 221.23441 
L 134.468713 190.780628 
" clip-path="url(#pd7f409e9ab)" style="fill: none; stroke: #424242; stroke-width: 2.7; stroke-linecap: square"/>
   </g>
   <g id="line2d_14">
    <path d="M 216.818182 202.000442 
L 216.818182 159.525431 
" clip-path="url(#pd7f409e9ab)" style="fill: none; stroke: #424242; stroke-width: 2.7; stroke-linecap: square"/>
   </g>
   <g id="line2d_15">
    <path d="M 299.167651 161.128262 
L 299.167651 119.454666 
" clip-path="url(#pd7f409e9ab)" style="fill: none; stroke: #424242; stroke-width: 2.7; stroke-linecap: square"/>
   </g>
   <g id="line2d_16">
    <path d="M 134.468713 208.411765 
L 216.818182 193.184874 
L 299.167651 56.142857 
" clip-path="url(#pd7f409e9ab)" style="fill: none; stroke: #f77189; stroke-width: 1.5; stroke-linecap: square"/>
   </g>
   <g id="line2d_17">
    <path d="M 134.468713 238.865546 
L 216.818182 269.319328 
L 299.167651 193.184874 
" clip-path="url(#pd7f409e9ab)" style="fill: none; stroke-dasharray: 6,2.25; stroke-dashoffset: 0; stroke: #f7764a; stroke-width: 1.5"/>
   </g>
   <g id="line2d_18">
    <path d="M 134.468713 193.184874 
L 216.818182 238.865546 
L 299.167651 132.277311 
" clip-path="url(#pd7f409e9ab)" style="fill: none; stroke-dasharray: 1.5,1.5; stroke-dashoffset: 0; stroke: #d98a32; stroke-width: 1.5"/>
   </g>
   <g id="line2d_19">
    <path d="M 134.468713 208.411765 
L 216.818182 147.504202 
L 299.167651 86.596639 
" clip-path="url(#pd7f409e9ab)" style="fill: none; stroke-dasharray: 4.5,1.875,2.25,1.875; stroke-dashoffset: 0; stroke: #bf9632; stroke-width: 1.5"/>
   </g>
   <g id="line2d_20">
    <path d="M 134.468713 223.638655 
L 216.818182 223.638655 
L 299.167651 162.731092 
" clip-path="url(#pd7f409e9ab)" style="fill: none; stroke-dasharray: 7.5,1.5,1.5,1.5; stroke-dashoffset: 0; stroke: #a99e31; stroke-width: 1.5"/>
   </g>
   <g id="line2d_21">
    <path d="M 134.468713 208.411765 
L 216.818182 101.823529 
L 299.167651 177.957983 
" clip-path="url(#pd7f409e9ab)" style="fill: none; stroke-dasharray: 4.5,1.875,1.875,1.875,1.875,1.875; stroke-dashoffset: 0; stroke: #90a531; stroke-width: 1.5"/>
   </g>
   <g id="line2d_22">
    <path d="M 134.468713 269.319328 
L 216.818182 193.184874 
L 299.167651 193.184874 
" clip-path="url(#pd7f409e9ab)" style="fill: none; stroke-dasharray: 6,1.5,6,1.5,1.5,1.5; stroke-dashoffset: 0; stroke: #68ad31; stroke-width: 1.5"/>
   </g>
   <g id="line2d_23">
    <path d="M 134.468713 193.184874 
L 216.818182 208.411765 
L 299.167651 162.731092 
" clip-path="url(#pd7f409e9ab)" style="fill: none; stroke-dasharray: 4.5,1.875,4.5,1.875,1.875,1.875; stroke-dashoffset: 0; stroke: #32b25e; stroke-width: 1.5"/>
   </g>
   <g id="line2d_24">
    <path d="M 134.468713 132.277311 
L 216.818182 147.504202 
L 299.167651 117.05042 
" clip-path="url(#pd7f409e9ab)" style="fill: none; stroke-dasharray: 6,1.5,1.5,1.5,1.5,1.5; stroke-dashoffset: 0; stroke: #34af86; stroke-width: 1.5"/>
   </g>
   <g id="line2d_25">
    <path d="M 134.468713 238.865546 
L 216.818182 208.411765 
L 299.167651 132.277311 
" clip-path="url(#pd7f409e9ab)" style="fill: none; stroke-dasharray: 4.5,1.875,1.875,1.875,1.875,1.875,1.875,1.875; stroke-dashoffset: 0; stroke: #35ae9c; stroke-width: 1.5"/>
   </g>
   <g id="line2d_26">
    <path d="M 134.468713 162.731092 
L 216.818182 208.411765 
L 299.167651 132.277311 
" clip-path="url(#pd7f409e9ab)" style="fill: none; stroke-dasharray: 6,1.5,6,1.5,6,1.5,1.5,1.5; stroke-dashoffset: 0; stroke: #36acac; stroke-width: 1.5"/>
   </g>
   <g id="line2d_27">
    <path d="M 134.468713 238.865546 
L 216.818182 177.957983 
L 299.167651 71.369748 
" clip-path="url(#pd7f409e9ab)" style="fill: none; stroke-dasharray: 4.5,1.875,4.5,1.875,1.875,1.875,1.875,1.875; stroke-dashoffset: 0; stroke: #37aabd; stroke-width: 1.5"/>
   </g>
   <g id="line2d_28">
    <path d="M 134.468713 208.411765 
L 216.818182 162.731092 
L 299.167651 132.277311 
" clip-path="url(#pd7f409e9ab)" style="fill: none; stroke-dasharray: 6,1.5,6,1.5,1.5,1.5,1.5,1.5; stroke-dashoffset: 0; stroke: #39a7d4; stroke-width: 1.5"/>
   </g>
   <g id="line2d_29">
    <path d="M 134.468713 223.638655 
L 216.818182 147.504202 
L 299.167651 238.865546 
" clip-path="url(#pd7f409e9ab)" style="fill: none; stroke-dasharray: 4.5,1.875,4.5,1.875,4.5,1.875,1.875,1.875; stroke-dashoffset: 0; stroke: #539ff4; stroke-width: 1.5"/>
   </g>
   <g id="line2d_30">
    <path d="M 134.468713 208.411765 
L 216.818182 223.638655 
L 299.167651 193.184874 
" clip-path="url(#pd7f409e9ab)" style="fill: none; stroke-dasharray: 6,1.5,1.5,1.5,1.5,1.5,1.5,1.5; stroke-dashoffset: 0; stroke: #9890f4; stroke-width: 1.5"/>
   </g>
   <g id="line2d_31">
    <path d="M 134.468713 132.277311 
L 216.818182 132.277311 
L 299.167651 71.369748 
" clip-path="url(#pd7f409e9ab)" style="fill: none; stroke-dasharray: 4.5,1.875,1.875,1.875,1.875,1.875,1.875,1.875,1.875,1.875; stroke-dashoffset: 0; stroke: #c47ef4; stroke-width: 1.5"/>
   </g>
   <g id="line2d_32">
    <path d="M 134.468713 223.638655 
L 216.818182 208.411765 
L 299.167651 147.504202 
" clip-path="url(#pd7f409e9ab)" style="fill: none; stroke-dasharray: 6,1.5,6,1.5,6,1.5,6,1.5,1.5,1.5; stroke-dashoffset: 0; stroke: #ef5ff4; stroke-width: 1.5"/>
   </g>
   <g id="line2d_33">
    <path d="M 134.468713 223.638655 
L 216.818182 162.731092 
L 299.167651 132.277311 
" clip-path="url(#pd7f409e9ab)" style="fill: none; stroke-dasharray: 4.5,1.875,4.5,1.875,1.875,1.875,1.875,1.875,1.875,1.875; stroke-dashoffset: 0; stroke: #f565d0; stroke-width: 1.5"/>
   </g>
   <g id="line2d_34">
    <path d="M 134.468713 193.184874 
L 216.818182 86.596639 
L 299.167651 147.504202 
" clip-path="url(#pd7f409e9ab)" style="fill: none; stroke-dasharray: 6,1.5,6,1.5,6,1.5,1.5,1.5,1.5,1.5; stroke-dashoffset: 0; stroke: #f66baf; stroke-width: 1.5"/>
   </g>
   <g id="patch_6">
    <path d="M 90 315 
L 90 43.2 
" style="fill: none; stroke: #000000; stroke-width: 0.8; stroke-linejoin: miter; stroke-linecap: square"/>
   </g>
   <g id="patch_7">
    <path d="M 343.636364 315 
L 343.636364 43.2 
" style="fill: none; stroke: #000000; stroke-width: 0.8; stroke-linejoin: miter; stroke-linecap: square"/>
   </g>
   <g id="patch_8">
    <path d="M 90 315 
L 343.636364 315 
" style="fill: none; stroke: #000000; stroke-width: 0.8; stroke-linejoin: miter; stroke-linecap: square"/>
   </g>
   <g id="patch_9">
    <path d="M 90 43.2 
L 343.636364 43.2 
" style="fill: none; stroke: #000000; stroke-width: 0.8; stroke-linejoin: miter; stroke-linecap: square"/>
   </g>
   <g id="PathCollection_1">
    <defs>
     <path id="C0_0_a90071271b" d="M 0 2.5 
C 0.663008 2.5 1.29895 2.236584 1.767767 1.767767 
C 2.236584 1.29895 2.5 0.663008 2.5 -0 
C 2.5 -0.663008 2.236584 -1.29895 1.767767 -1.767767 
C 1.29895 -2.236584 0.663008 -2.5 0 -2.5 
C -0.663008 -2.5 -1.29895 -2.236584 -1.767767 -1.767767 
C -2.236584 -1.29895 -2.5 -0.663008 -2.5 0 
C -2.5 0.663008 -2.236584 1.29895 -1.767767 1.767767 
C -1.29895 2.236584 -0.663008 2.5 0 2.5 
z
"/>
    </defs>
    <g clip-path="url(#pd7f409e9ab)">
     <use xlink:href="#C0_0_a90071271b" x="139.718713" y="208.411765" style="fill: #262626"/>
    </g>
    <g clip-path="url(#pd7f409e9ab)">
     <use xlink:href="#C0_0_a90071271b" x="129.218713" y="238.865546" style="fill: #262626"/>
    </g>
    <g clip-path="url(#pd7f409e9ab)">
     <use xlink:href="#C0_0_a90071271b" x="129.218713" y="193.184874" style="fill: #262626"/>
    </g>
    <g clip-path="url(#pd7f409e9ab)">
     <use xlink:href="#C0_0_a90071271b" x="144.968713" y="208.411765" style="fill: #262626"/>
    </g>
    <g clip-path="url(#pd7f409e9ab)">
     <use xlink:href="#C0_0_a90071271b" x="129.218713" y="223.638655" style="fill: #262626"/>
    </g>
    <g clip-path="url(#pd7f409e9ab)">
     <use xlink:href="#C0_0_a90071271b" x="123.968713" y="208.411765" style="fill: #262626"/>
    </g>
    <g clip-path="url(#pd7f409e9ab)">
     <use xlink:href="#C0_0_a90071271b" x="134.468713" y="269.319328" style="fill: #262626"/>
    </g>
    <g clip-path="url(#pd7f409e9ab)">
     <use xlink:href="#C0_0_a90071271b" x="134.468713" y="193.184874" style="fill: #262626"/>
    </g>
    <g clip-path="url(#pd7f409e9ab)">
     <use xlink:href="#C0_0_a90071271b" x="134.468713" y="132.277311" style="fill: #262626"/>
    </g>
    <g clip-path="url(#pd7f409e9ab)">
     <use xlink:href="#C0_0_a90071271b" x="134.468713" y="238.865546" style="fill: #262626"/>
    </g>
    <g clip-path="url(#pd7f409e9ab)">
     <use xlink:href="#C0_0_a90071271b" x="134.468713" y="162.731092" style="fill: #262626"/>
    </g>
    <g clip-path="url(#pd7f409e9ab)">
     <use xlink:href="#C0_0_a90071271b" x="139.718713" y="238.865546" style="fill: #262626"/>
    </g>
    <g clip-path="url(#pd7f409e9ab)">
     <use xlink:href="#C0_0_a90071271b" x="129.218713" y="208.411765" style="fill: #262626"/>
    </g>
    <g clip-path="url(#pd7f409e9ab)">
     <use xlink:href="#C0_0_a90071271b" x="139.718713" y="223.638655" style="fill: #262626"/>
    </g>
    <g clip-path="url(#pd7f409e9ab)">
     <use xlink:href="#C0_0_a90071271b" x="134.468713" y="208.411765" style="fill: #262626"/>
    </g>
    <g clip-path="url(#pd7f409e9ab)">
     <use xlink:href="#C0_0_a90071271b" x="129.218713" y="132.277311" style="fill: #262626"/>
    </g>
    <g clip-path="url(#pd7f409e9ab)">
     <use xlink:href="#C0_0_a90071271b" x="134.468713" y="223.638655" style="fill: #262626"/>
    </g>
    <g clip-path="url(#pd7f409e9ab)">
     <use xlink:href="#C0_0_a90071271b" x="123.968713" y="223.638655" style="fill: #262626"/>
    </g>
    <g clip-path="url(#pd7f409e9ab)">
     <use xlink:href="#C0_0_a90071271b" x="139.718713" y="193.184874" style="fill: #262626"/>
    </g>
   </g>
   <g id="PathCollection_2">
    <defs>
     <path id="C1_0_e684cc0299" d="M 0 2.5 
C 0.663008 2.5 1.29895 2.236584 1.767767 1.767767 
C 2.236584 1.29895 2.5 0.663008 2.5 -0 
C 2.5 -0.663008 2.236584 -1.29895 1.767767 -1.767767 
C 1.29895 -2.236584 0.663008 -2.5 0 -2.5 
C -0.663008 -2.5 -1.29895 -2.236584 -1.767767 -1.767767 
C -2.236584 -1.29895 -2.5 -0.663008 -2.5 0 
C -2.5 0.663008 -2.236584 1.29895 -1.767767 1.767767 
C -1.29895 2.236584 -0.663008 2.5 0 2.5 
z
"/>
    </defs>
    <g clip-path="url(#pd7f409e9ab)">
     <use xlink:href="#C1_0_e684cc0299" x="216.818182" y="193.184874" style="fill: #131313"/>
    </g>
    <g clip-path="url(#pd7f409e9ab)">
     <use xlink:href="#C1_0_e684cc0299" x="216.818182" y="269.319328" style="fill: #131313"/>
    </g>
    <g clip-path="url(#pd7f409e9ab)">
     <use xlink:href="#C1_0_e684cc0299" x="216.818182" y="238.865546" style="fill: #131313"/>
    </g>
    <g clip-path="url(#pd7f409e9ab)">
     <use xlink:href="#C1_0_e684cc0299" x="211.568182" y="147.504202" style="fill: #131313"/>
    </g>
    <g clip-path="url(#pd7f409e9ab)">
     <use xlink:href="#C1_0_e684cc0299" x="216.818182" y="223.638655" style="fill: #131313"/>
    </g>
    <g clip-path="url(#pd7f409e9ab)">
     <use xlink:href="#C1_0_e684cc0299" x="216.818182" y="101.823529" style="fill: #131313"/>
    </g>
    <g clip-path="url(#pd7f409e9ab)">
     <use xlink:href="#C1_0_e684cc0299" x="211.568182" y="193.184874" style="fill: #131313"/>
    </g>
    <g clip-path="url(#pd7f409e9ab)">
     <use xlink:href="#C1_0_e684cc0299" x="206.318182" y="208.411765" style="fill: #131313"/>
    </g>
    <g clip-path="url(#pd7f409e9ab)">
     <use xlink:href="#C1_0_e684cc0299" x="222.068182" y="147.504202" style="fill: #131313"/>
    </g>
    <g clip-path="url(#pd7f409e9ab)">
     <use xlink:href="#C1_0_e684cc0299" x="216.818182" y="208.411765" style="fill: #131313"/>
    </g>
    <g clip-path="url(#pd7f409e9ab)">
     <use xlink:href="#C1_0_e684cc0299" x="222.068182" y="208.411765" style="fill: #131313"/>
    </g>
    <g clip-path="url(#pd7f409e9ab)">
     <use xlink:href="#C1_0_e684cc0299" x="216.818182" y="177.957983" style="fill: #131313"/>
    </g>
    <g clip-path="url(#pd7f409e9ab)">
     <use xlink:href="#C1_0_e684cc0299" x="211.568182" y="162.731092" style="fill: #131313"/>
    </g>
    <g clip-path="url(#pd7f409e9ab)">
     <use xlink:href="#C1_0_e684cc0299" x="216.818182" y="147.504202" style="fill: #131313"/>
    </g>
    <g clip-path="url(#pd7f409e9ab)">
     <use xlink:href="#C1_0_e684cc0299" x="211.568182" y="223.638655" style="fill: #131313"/>
    </g>
    <g clip-path="url(#pd7f409e9ab)">
     <use xlink:href="#C1_0_e684cc0299" x="216.818182" y="132.277311" style="fill: #131313"/>
    </g>
    <g clip-path="url(#pd7f409e9ab)">
     <use xlink:href="#C1_0_e684cc0299" x="211.568182" y="208.411765" style="fill: #131313"/>
    </g>
    <g clip-path="url(#pd7f409e9ab)">
     <use xlink:href="#C1_0_e684cc0299" x="216.818182" y="162.731092" style="fill: #131313"/>
    </g>
    <g clip-path="url(#pd7f409e9ab)">
     <use xlink:href="#C1_0_e684cc0299" x="216.818182" y="86.596639" style="fill: #131313"/>
    </g>
   </g>
   <g id="PathCollection_3">
    <defs>
     <path id="C2_0_59d944621c" d="M 0 2.5 
C 0.663008 2.5 1.29895 2.236584 1.767767 1.767767 
C 2.236584 1.29895 2.5 0.663008 2.5 -0 
C 2.5 -0.663008 2.236584 -1.29895 1.767767 -1.767767 
C 1.29895 -2.236584 0.663008 -2.5 0 -2.5 
C -0.663008 -2.5 -1.29895 -2.236584 -1.767767 -1.767767 
C -2.236584 -1.29895 -2.5 -0.663008 -2.5 0 
C -2.5 0.663008 -2.236584 1.29895 -1.767767 1.767767 
C -1.29895 2.236584 -0.663008 2.5 0 2.5 
z
"/>
    </defs>
    <g clip-path="url(#pd7f409e9ab)">
     <use xlink:href="#C2_0_59d944621c" x="299.167651" y="56.142857"/>
    </g>
    <g clip-path="url(#pd7f409e9ab)">
     <use xlink:href="#C2_0_59d944621c" x="299.167651" y="193.184874"/>
    </g>
    <g clip-path="url(#pd7f409e9ab)">
     <use xlink:href="#C2_0_59d944621c" x="288.667651" y="132.277311"/>
    </g>
    <g clip-path="url(#pd7f409e9ab)">
     <use xlink:href="#C2_0_59d944621c" x="299.167651" y="86.596639"/>
    </g>
    <g clip-path="url(#pd7f409e9ab)">
     <use xlink:href="#C2_0_59d944621c" x="299.167651" y="162.731092"/>
    </g>
    <g clip-path="url(#pd7f409e9ab)">
     <use xlink:href="#C2_0_59d944621c" x="299.167651" y="177.957983"/>
    </g>
    <g clip-path="url(#pd7f409e9ab)">
     <use xlink:href="#C2_0_59d944621c" x="304.417651" y="193.184874"/>
    </g>
    <g clip-path="url(#pd7f409e9ab)">
     <use xlink:href="#C2_0_59d944621c" x="293.917651" y="162.731092"/>
    </g>
    <g clip-path="url(#pd7f409e9ab)">
     <use xlink:href="#C2_0_59d944621c" x="299.167651" y="117.05042"/>
    </g>
    <g clip-path="url(#pd7f409e9ab)">
     <use xlink:href="#C2_0_59d944621c" x="293.917651" y="132.277311"/>
    </g>
    <g clip-path="url(#pd7f409e9ab)">
     <use xlink:href="#C2_0_59d944621c" x="309.667651" y="132.277311"/>
    </g>
    <g clip-path="url(#pd7f409e9ab)">
     <use xlink:href="#C2_0_59d944621c" x="299.167651" y="71.369748"/>
    </g>
    <g clip-path="url(#pd7f409e9ab)">
     <use xlink:href="#C2_0_59d944621c" x="299.167651" y="132.277311"/>
    </g>
    <g clip-path="url(#pd7f409e9ab)">
     <use xlink:href="#C2_0_59d944621c" x="299.167651" y="238.865546"/>
    </g>
    <g clip-path="url(#pd7f409e9ab)">
     <use xlink:href="#C2_0_59d944621c" x="293.917651" y="193.184874"/>
    </g>
    <g clip-path="url(#pd7f409e9ab)">
     <use xlink:href="#C2_0_59d944621c" x="293.917651" y="71.369748"/>
    </g>
    <g clip-path="url(#pd7f409e9ab)">
     <use xlink:href="#C2_0_59d944621c" x="293.917651" y="147.504202"/>
    </g>
    <g clip-path="url(#pd7f409e9ab)">
     <use xlink:href="#C2_0_59d944621c" x="304.417651" y="132.277311"/>
    </g>
    <g clip-path="url(#pd7f409e9ab)">
     <use xlink:href="#C2_0_59d944621c" x="299.167651" y="147.504202"/>
    </g>
   </g>
  </g>
  <g id="axes_2">
   <g id="patch_10">
    <path d="M 394.363636 315 
L 648 315 
L 648 43.2 
L 394.363636 43.2 
z
" style="fill: #ffffff"/>
   </g>
   <g id="patch_11">
    <path d="M 419.727273 315 
L 622.636364 315 
L 622.636364 138.22782 
L 419.727273 138.22782 
z
" clip-path="url(#pc78fd8203f)" style="fill: #3274a1"/>
   </g>
   <g id="matplotlib.axis_3">
    <g id="xtick_4">
     <g id="line2d_35">
      <g>
       <use xlink:href="#m16019a1909" x="521.181818" y="315" style="stroke: #000000; stroke-width: 0.8"/>
      </g>
     </g>
     <g id="text_14">
      <!-- overall success -->
      <g transform="translate(485.408339 371.481221)rotate(-30)scale(0.1 -0.1)">
       <defs>
        <path id="DejaVuSans-Bold-6f" d="M 2203 2784 
Q 1831 2784 1636 2517 
Q 1441 2250 1441 1747 
Q 1441 1244 1636 976 
Q 1831 709 2203 709 
Q 2569 709 2762 976 
Q 2956 1244 2956 1747 
Q 2956 2250 2762 2517 
Q 2569 2784 2203 2784 
z
M 2203 3584 
Q 3106 3584 3614 3096 
Q 4122 2609 4122 1747 
Q 4122 884 3614 396 
Q 3106 -91 2203 -91 
Q 1297 -91 786 396 
Q 275 884 275 1747 
Q 275 2609 786 3096 
Q 1297 3584 2203 3584 
z
" transform="scale(0.015625)"/>
        <path id="DejaVuSans-Bold-76" d="M 97 3500 
L 1216 3500 
L 2088 1081 
L 2956 3500 
L 4078 3500 
L 2700 0 
L 1472 0 
L 97 3500 
z
" transform="scale(0.015625)"/>
        <path id="DejaVuSans-Bold-20" transform="scale(0.015625)"/>
        <path id="DejaVuSans-Bold-73" d="M 3272 3391 
L 3272 2541 
Q 2913 2691 2578 2766 
Q 2244 2841 1947 2841 
Q 1628 2841 1473 2761 
Q 1319 2681 1319 2516 
Q 1319 2381 1436 2309 
Q 1553 2238 1856 2203 
L 2053 2175 
Q 2913 2066 3209 1816 
Q 3506 1566 3506 1031 
Q 3506 472 3093 190 
Q 2681 -91 1863 -91 
Q 1516 -91 1145 -36 
Q 775 19 384 128 
L 384 978 
Q 719 816 1070 734 
Q 1422 653 1784 653 
Q 2113 653 2278 743 
Q 2444 834 2444 1013 
Q 2444 1163 2330 1236 
Q 2216 1309 1875 1350 
L 1678 1375 
Q 931 1469 631 1722 
Q 331 1975 331 2491 
Q 331 3047 712 3315 
Q 1094 3584 1881 3584 
Q 2191 3584 2531 3537 
Q 2872 3491 3272 3391 
z
" transform="scale(0.015625)"/>
       </defs>
       <use xlink:href="#DejaVuSans-Bold-6f"/>
       <use xlink:href="#DejaVuSans-Bold-76" x="68.701172"/>
       <use xlink:href="#DejaVuSans-Bold-65" x="133.886719"/>
       <use xlink:href="#DejaVuSans-Bold-72" x="201.708984"/>
       <use xlink:href="#DejaVuSans-Bold-61" x="251.025391"/>
       <use xlink:href="#DejaVuSans-Bold-6c" x="318.505859"/>
       <use xlink:href="#DejaVuSans-Bold-6c" x="352.783203"/>
       <use xlink:href="#DejaVuSans-Bold-20" x="387.060547"/>
       <use xlink:href="#DejaVuSans-Bold-73" x="421.875"/>
       <use xlink:href="#DejaVuSans-Bold-75" x="481.396484"/>
       <use xlink:href="#DejaVuSans-Bold-63" x="552.587891"/>
       <use xlink:href="#DejaVuSans-Bold-63" x="611.865234"/>
       <use xlink:href="#DejaVuSans-Bold-65" x="671.142578"/>
       <use xlink:href="#DejaVuSans-Bold-73" x="738.964844"/>
       <use xlink:href="#DejaVuSans-Bold-73" x="798.486328"/>
      </g>
     </g>
    </g>
   </g>
   <g id="matplotlib.axis_4">
    <g id="ytick_10">
     <g id="line2d_36">
      <g>
       <use xlink:href="#m6565908df0" x="394.363636" y="315" style="stroke: #000000; stroke-width: 0.8"/>
      </g>
     </g>
     <g id="text_15">
      <!-- 0.0 -->
      <g transform="translate(369.649574 318.799219)scale(0.1 -0.1)">
       <use xlink:href="#DejaVuSans-Bold-30"/>
       <use xlink:href="#DejaVuSans-Bold-2e" x="69.580078"/>
       <use xlink:href="#DejaVuSans-Bold-30" x="107.568359"/>
      </g>
     </g>
    </g>
    <g id="ytick_11">
     <g id="line2d_37">
      <g>
       <use xlink:href="#m6565908df0" x="394.363636" y="276.171429" style="stroke: #000000; stroke-width: 0.8"/>
      </g>
     </g>
     <g id="text_16">
      <!-- 0.1 -->
      <g transform="translate(369.649574 279.970647)scale(0.1 -0.1)">
       <use xlink:href="#DejaVuSans-Bold-30"/>
       <use xlink:href="#DejaVuSans-Bold-2e" x="69.580078"/>
       <use xlink:href="#DejaVuSans-Bold-31" x="107.568359"/>
      </g>
     </g>
    </g>
    <g id="ytick_12">
     <g id="line2d_38">
      <g>
       <use xlink:href="#m6565908df0" x="394.363636" y="237.342857" style="stroke: #000000; stroke-width: 0.8"/>
      </g>
     </g>
     <g id="text_17">
      <!-- 0.2 -->
      <g transform="translate(369.649574 241.142076)scale(0.1 -0.1)">
       <use xlink:href="#DejaVuSans-Bold-30"/>
       <use xlink:href="#DejaVuSans-Bold-2e" x="69.580078"/>
       <use xlink:href="#DejaVuSans-Bold-32" x="107.568359"/>
      </g>
     </g>
    </g>
    <g id="ytick_13">
     <g id="line2d_39">
      <g>
       <use xlink:href="#m6565908df0" x="394.363636" y="198.514286" style="stroke: #000000; stroke-width: 0.8"/>
      </g>
     </g>
     <g id="text_18">
      <!-- 0.3 -->
      <g transform="translate(369.649574 202.313504)scale(0.1 -0.1)">
       <use xlink:href="#DejaVuSans-Bold-30"/>
       <use xlink:href="#DejaVuSans-Bold-2e" x="69.580078"/>
       <use xlink:href="#DejaVuSans-Bold-33" x="107.568359"/>
      </g>
     </g>
    </g>
    <g id="ytick_14">
     <g id="line2d_40">
      <g>
       <use xlink:href="#m6565908df0" x="394.363636" y="159.685714" style="stroke: #000000; stroke-width: 0.8"/>
      </g>
     </g>
     <g id="text_19">
      <!-- 0.4 -->
      <g transform="translate(369.649574 163.484933)scale(0.1 -0.1)">
       <use xlink:href="#DejaVuSans-Bold-30"/>
       <use xlink:href="#DejaVuSans-Bold-2e" x="69.580078"/>
       <use xlink:href="#DejaVuSans-Bold-34" x="107.568359"/>
      </g>
     </g>
    </g>
    <g id="ytick_15">
     <g id="line2d_41">
      <g>
       <use xlink:href="#m6565908df0" x="394.363636" y="120.857143" style="stroke: #000000; stroke-width: 0.8"/>
      </g>
     </g>
     <g id="text_20">
      <!-- 0.5 -->
      <g transform="translate(369.649574 124.656362)scale(0.1 -0.1)">
       <use xlink:href="#DejaVuSans-Bold-30"/>
       <use xlink:href="#DejaVuSans-Bold-2e" x="69.580078"/>
       <use xlink:href="#DejaVuSans-Bold-35" x="107.568359"/>
      </g>
     </g>
    </g>
    <g id="ytick_16">
     <g id="line2d_42">
      <g>
       <use xlink:href="#m6565908df0" x="394.363636" y="82.028571" style="stroke: #000000; stroke-width: 0.8"/>
      </g>
     </g>
     <g id="text_21">
      <!-- 0.6 -->
      <g transform="translate(369.649574 85.82779)scale(0.1 -0.1)">
       <use xlink:href="#DejaVuSans-Bold-30"/>
       <use xlink:href="#DejaVuSans-Bold-2e" x="69.580078"/>
       <use xlink:href="#DejaVuSans-Bold-36" x="107.568359"/>
      </g>
     </g>
    </g>
    <g id="ytick_17">
     <g id="line2d_43">
      <g>
       <use xlink:href="#m6565908df0" x="394.363636" y="43.2" style="stroke: #000000; stroke-width: 0.8"/>
      </g>
     </g>
     <g id="text_22">
      <!-- 0.7 -->
      <g transform="translate(369.649574 46.999219)scale(0.1 -0.1)">
       <use xlink:href="#DejaVuSans-Bold-30"/>
       <use xlink:href="#DejaVuSans-Bold-2e" x="69.580078"/>
       <use xlink:href="#DejaVuSans-Bold-37" x="107.568359"/>
      </g>
     </g>
    </g>
    <g id="text_23">
     <!-- Accuracy -->
     <g transform="translate(363.491761 204.520312)rotate(-90)scale(0.1 -0.1)">
      <use xlink:href="#DejaVuSans-Bold-41"/>
      <use xlink:href="#DejaVuSans-Bold-63" x="77.392578"/>
      <use xlink:href="#DejaVuSans-Bold-63" x="136.669922"/>
      <use xlink:href="#DejaVuSans-Bold-75" x="195.947266"/>
      <use xlink:href="#DejaVuSans-Bold-72" x="267.138672"/>
      <use xlink:href="#DejaVuSans-Bold-61" x="316.455078"/>
      <use xlink:href="#DejaVuSans-Bold-63" x="383.935547"/>
      <use xlink:href="#DejaVuSans-Bold-79" x="443.212891"/>
     </g>
    </g>
   </g>
   <g id="line2d_44">
    <path d="M 521.181818 155.598496 
L 521.181818 122.211034 
" clip-path="url(#pc78fd8203f)" style="fill: none; stroke: #424242; stroke-width: 2.7; stroke-linecap: square"/>
   </g>
   <g id="patch_12">
    <path d="M 394.363636 315 
L 394.363636 43.2 
" style="fill: none; stroke: #000000; stroke-width: 0.8; stroke-linejoin: miter; stroke-linecap: square"/>
   </g>
   <g id="patch_13">
    <path d="M 648 315 
L 648 43.2 
" style="fill: none; stroke: #000000; stroke-width: 0.8; stroke-linejoin: miter; stroke-linecap: square"/>
   </g>
   <g id="patch_14">
    <path d="M 394.363636 315 
L 648 315 
" style="fill: none; stroke: #000000; stroke-width: 0.8; stroke-linejoin: miter; stroke-linecap: square"/>
   </g>
   <g id="patch_15">
    <path d="M 394.363636 43.2 
L 648 43.2 
" style="fill: none; stroke: #000000; stroke-width: 0.8; stroke-linejoin: miter; stroke-linecap: square"/>
   </g>
   <g id="PathCollection_4">
    <defs>
     <path id="C3_0_7f66c1723f" d="M 0 2.5 
C 0.663008 2.5 1.29895 2.236584 1.767767 1.767767 
C 2.236584 1.29895 2.5 0.663008 2.5 -0 
C 2.5 -0.663008 2.236584 -1.29895 1.767767 -1.767767 
C 1.29895 -2.236584 0.663008 -2.5 0 -2.5 
C -0.663008 -2.5 -1.29895 -2.236584 -1.767767 -1.767767 
C -2.236584 -1.29895 -2.5 -0.663008 -2.5 0 
C -2.5 0.663008 -2.236584 1.29895 -1.767767 1.767767 
C -1.29895 2.236584 -0.663008 2.5 0 2.5 
z
"/>
    </defs>
    <g clip-path="url(#pc78fd8203f)">
     <use xlink:href="#C3_0_7f66c1723f" x="521.181818" y="107.914286" style="fill: #262626"/>
    </g>
    <g clip-path="url(#pc78fd8203f)">
     <use xlink:href="#C3_0_7f66c1723f" x="521.181818" y="211.457143" style="fill: #262626"/>
    </g>
    <g clip-path="url(#pc78fd8203f)">
     <use xlink:href="#C3_0_7f66c1723f" x="521.181818" y="153.214286" style="fill: #262626"/>
    </g>
    <g clip-path="url(#pc78fd8203f)">
     <use xlink:href="#C3_0_7f66c1723f" x="521.181818" y="101.442857" style="fill: #262626"/>
    </g>
    <g clip-path="url(#pc78fd8203f)">
     <use xlink:href="#C3_0_7f66c1723f" x="521.181818" y="172.628571" style="fill: #262626"/>
    </g>
    <g clip-path="url(#pc78fd8203f)">
     <use xlink:href="#C3_0_7f66c1723f" x="521.181818" y="120.857143" style="fill: #262626"/>
    </g>
    <g clip-path="url(#pc78fd8203f)">
     <use xlink:href="#C3_0_7f66c1723f" x="521.181818" y="192.042857" style="fill: #262626"/>
    </g>
    <g clip-path="url(#pc78fd8203f)">
     <use xlink:href="#C3_0_7f66c1723f" x="515.931818" y="153.214286" style="fill: #262626"/>
    </g>
    <g clip-path="url(#pc78fd8203f)">
     <use xlink:href="#C3_0_7f66c1723f" x="521.181818" y="82.028571" style="fill: #262626"/>
    </g>
    <g clip-path="url(#pc78fd8203f)">
     <use xlink:href="#C3_0_7f66c1723f" x="521.181818" y="159.685714" style="fill: #262626"/>
    </g>
    <g clip-path="url(#pc78fd8203f)">
     <use xlink:href="#C3_0_7f66c1723f" x="521.181818" y="127.328571" style="fill: #262626"/>
    </g>
    <g clip-path="url(#pc78fd8203f)">
     <use xlink:href="#C3_0_7f66c1723f" x="515.931818" y="120.857143" style="fill: #262626"/>
    </g>
    <g clip-path="url(#pc78fd8203f)">
     <use xlink:href="#C3_0_7f66c1723f" x="515.931818" y="127.328571" style="fill: #262626"/>
    </g>
    <g clip-path="url(#pc78fd8203f)">
     <use xlink:href="#C3_0_7f66c1723f" x="515.931818" y="172.628571" style="fill: #262626"/>
    </g>
    <g clip-path="url(#pc78fd8203f)">
     <use xlink:href="#C3_0_7f66c1723f" x="521.181818" y="179.1" style="fill: #262626"/>
    </g>
    <g clip-path="url(#pc78fd8203f)">
     <use xlink:href="#C3_0_7f66c1723f" x="521.181818" y="56.142857" style="fill: #262626"/>
    </g>
    <g clip-path="url(#pc78fd8203f)">
     <use xlink:href="#C3_0_7f66c1723f" x="515.931818" y="159.685714" style="fill: #262626"/>
    </g>
    <g clip-path="url(#pc78fd8203f)">
     <use xlink:href="#C3_0_7f66c1723f" x="521.181818" y="133.8" style="fill: #262626"/>
    </g>
    <g clip-path="url(#pc78fd8203f)">
     <use xlink:href="#C3_0_7f66c1723f" x="521.181818" y="94.971429" style="fill: #262626"/>
    </g>
   </g>
  </g>
 </g>
 <defs>
  <clipPath id="pd7f409e9ab">
   <rect x="90" y="43.2" width="253.636364" height="271.8"/>
  </clipPath>
  <clipPath id="pc78fd8203f">
   <rect x="394.363636" y="43.2" width="253.636364" height="271.8"/>
  </clipPath>
 </defs>
</svg>
